#!OML:ASF F:\VICON\USERDATA\INSTALL\rory3\rory3.ASF
:FULLY-SPECIFIED
:DEGREES
305
root 0.99573 16.5068 -17.3332 -291.18 -76.7378 -52.7494
lowerback -1.94032 4.40514 0.0293584
upperback -10.8482 5.66708 0.814562
thorax -10.5257 2.6784 0.47111
lowerneck -13.2367 9.52366 9.61023
upperneck 38.8785 8.02564 5.98165
head 16.4543 5.19562 2.28334
rclavicle 1.58034e-014 -2.38542e-015
rhumerus 353.882 51.6667 -458.798
rradius 74.1816
rwrist -60.0258
rhand 15.1189 9.80781
rfingers 7.12502
rthumb 39.9635 -15.4292
lclavicle 1.58034e-014 -2.38542e-015
lhumerus -16.9521 -55.0694 105.766
lradius 42.4902
lwrist 15.6805
lhand 34.0884 -1.25703
lfingers 7.12502
lthumb 57.3403 15.0419
rfemur -34.8546 21.2669 369.044
rtibia 42.9304
rfoot 186.083 166.22
rtoes 32.9641
lfemur -47.4192 -42.6672 25.4535
ltibia 49.9937
lfoot -192.808 -184.954
ltoes -43.5083
306
root 1.04406 16.4555 -17.0599 -261.447 -80.4693 -81.3239
lowerback -2.87368 4.80957 -1.39624
upperback -10.9266 6.08611 0.439412
thorax -10.1917 2.98033 0.896573
lowerneck -13.8114 9.68276 9.79255
upperneck 39.1277 8.12391 5.75833
head 16.7596 5.19998 2.22365
rclavicle 1.02473e-013 1.82882e-014
rhumerus 354.941 51.7757 -458.128
rradius 71.2257
rwrist -59.2362
rhand 16.8367 9.64119
rfingers 7.12502
rthumb 41.5776 -15.0888
lclavicle 1.02473e-013 1.82882e-014
lhumerus -15.8133 -52.5146 103.776
lradius 41.142
lwrist 13.042
lhand 32.9456 -2.24972
lfingers 7.12502
lthumb 56.3338 14.8781
rfemur -38.2877 21.1694 365.318
rtibia 42.7396
rfoot 185.312 166.428
rtoes 30.9328
lfemur -45.2283 -41.9636 21.9076
ltibia 50.167
lfoot -193.849 -184.542
ltoes -42.8138
307
root 1.08982 16.4019 -16.8338 -229.475 -78.962 -112.772
lowerback -2.87792 5.3059 -0.41877
upperback -11.023 6.72056 0.013154
thorax -10.1394 3.16771 -0.12413
lowerneck -14.3613 9.61599 9.38687
upperneck 39.2048 7.63633 6.59304
head 16.8577 5.02286 2.59202
rclavicle -8.09054e-014 -7.15625e-015
rhumerus 355.67 50.6303 -458.123
rradius 68.5257
rwrist -58.1871
rhand 17.6702 10.118
rfingers 7.12502
rthumb 42.3589 -14.3507
lclavicle -8.09054e-014 -7.15625e-015
lhumerus -15.595 -52.5497 101.531
lradius 41.0503
lwrist 14.2285
lhand 30.6049 0.632584
lfingers 7.12502
lthumb 54.25 19.3002
rfemur -41.019 22.425 364.041
rtibia 42.3091
rfoot 184.808 163.78
rtoes 32.2294
lfemur -42.4632 -40.2892 19.8525
ltibia 50.3905
lfoot -195.427 -185.407
ltoes -41.5726
308
root 1.14646 16.34 -16.6354 -212.741 -75.3153 -129.571
lowerback -2.14865 4.72508 0.59867
upperback -10.8426 5.92765 -0.439342
thorax -10.187 2.65167 -1.15686
lowerneck -14.5697 10.4003 11.9879
upperneck 39.2245 7.82563 6.41765
head 17.1997 5.39468 2.17329
rclavicle -6.37105e-014 -5.24792e-014
rhumerus 356.671 50.9136 -459.952
rradius 66.1593
rwrist -57.0374
rhand 17.1995 10.2821
rfingers 7.12502
rthumb 41.9178 -14.3354
lclavicle -6.37105e-014 -5.24792e-014
lhumerus -14.514 -52.2076 95.1113
lradius 42.1508
lwrist 13.3686
lhand 30.6139 1.98858
lfingers 7.12502
lthumb 54.258 20.6507
rfemur -43.1719 24.4024 363.459
rtibia 41.9451
rfoot 184.106 159.916
rtoes 34.261
lfemur -39.286 -38.266 17.883
ltibia 50.4649
lfoot -197.401 -185.696
ltoes -43.0775
309
root 1.1814 16.2874 -16.3485 -192.721 -71.8964 -148.698
lowerback -2.86842 5.18982 -1.59618
upperback -10.9144 6.41617 -0.685588
thorax -10.0738 3.05882 -0.195733
lowerneck -15.0385 9.85902 10.1001
upperneck 39.323 7.44733 6.54426
head 17.1683 4.96249 2.46034
rclavicle -4.14466e-014 -1.74931e-014
rhumerus 356.872 50.2283 -458.002
rradius 63.6767
rwrist -55.4998
rhand 17.1509 11.4497
rfingers 7.12502
rthumb 41.8723 -13.183
lclavicle -4.14466e-014 -1.74931e-014
lhumerus -12.7823 -47.3224 94.176
lradius 39.2015
lwrist 9.49446
lhand 31.8713 1.9982
lfingers 7.12502
lthumb 55.381 19.8576
rfemur -46.9879 24.4917 358.948
rtibia 41.7729
rfoot 185.596 158.803
rtoes 30.7395
lfemur -37.5073 -36.4076 12.8398
ltibia 50.571
lfoot -199.043 -183.304
ltoes -45.4174
310
root 1.23307 16.226 -16.1299 -189.311 -67.2626 -151.871
lowerback -2.405 5.34462 -1.05811
upperback -10.6938 6.70122 0.115455
thorax -10.1399 3.19039 0.307527
lowerneck -15.4873 9.25974 8.4347
upperneck 39.2481 6.91233 6.70658
head 17.0751 4.49878 2.69427
rclavicle -9.54166e-015 -3.33958e-014
rhumerus 356.912 47.3972 -457.297
rradius 60.1676
rwrist -52.3602
rhand 17.9459 12.3286
rfingers 7.12502
rthumb 42.6169 -12.0513
lclavicle -9.54166e-015 -3.33958e-014
lhumerus -12.2761 -46.702 92.585
lradius 39.1292
lwrist 11.485
lhand 30.2427 5.78906
lfingers 7.12502
lthumb 53.925 24.6777
rfemur -49.4868 26.3883 358.378
rtibia 41.398
rfoot 185.859 155.537
rtoes 29.8583
lfemur -35.055 -33.6678 11.2117
ltibia 50.8601
lfoot -200.515 -181.977
ltoes -45.5561
311
root 1.2297 16.1711 -15.7811 -178.116 -62.7698 -162.29
lowerback -2.80741 5.60565 -2.46644
upperback -11.0113 6.85213 -1.05178
thorax -10.3021 3.29793 -0.150679
lowerneck -15.5095 8.70808 7.30724
upperneck 39.0005 6.1617 7.21028
head 16.8389 4.06229 2.92304
rclavicle 1.01877e-013 5.24792e-014
rhumerus 356.759 47.6153 -455.516
rradius 59.2724
rwrist -52.9738
rhand 15.04 11.9948
rfingers 7.12502
rthumb 39.8893 -13.2646
lclavicle 1.01877e-013 5.24792e-014
lhumerus -12.216 -46.0838 90.387
lradius 39.0869
lwrist 13.0958
lhand 28.7055 10.4205
lfingers 7.12502
lthumb 52.5394 30.2002
rfemur -53.3454 25.7426 353.177
rtibia 41.3058
rfoot 184.065 152.977
rtoes 33.4879
lfemur -34.3637 -31.5914 5.51321
ltibia 51.3625
lfoot -201.604 -178.972
ltoes -45.3846
312
root 1.2738 16.1075 -15.6502 -180.429 -58.2683 -159.485
lowerback -2.07271 5.70569 -1.09809
upperback -11.2146 7.0633 -0.264914
thorax -10.8989 3.30036 -0.156928
lowerneck -16.3906 7.89663 7.58324
upperneck 39.9432 4.75628 6.50375
head 17.6525 3.3655 2.38869
rclavicle 2.3556e-014 -6.36111e-015
rhumerus 355.854 43.9566 -455.609
rradius 56.2981
rwrist -51.6013
rhand 14.1142 11.7129
rfingers 7.12502
rthumb 39.0172 -13.8022
lclavicle 2.3556e-014 -6.36111e-015
lhumerus -12.4903 -43.5193 88.2955
lradius 38.2169
lwrist 11.1674
lhand 29.0372 14.3848
lfingers 7.12502
lthumb 52.8393 33.9784
rfemur -56.3297 31.5212 351.983
rtibia 40.9716
rfoot 169.636 146.75
rtoes 44.9426
lfemur -32.5347 -27.6009 5.80267
ltibia 52.1488
lfoot -203.332 -177.635
ltoes -45.7741
313
root 1.26042 16.0469 -15.3678 -176.269 -53.9892 -162.678
lowerback -2.25488 5.9383 -0.906947
upperback -11.6751 7.2488 -0.939841
thorax -11.2031 3.2947 -0.992495
lowerneck -17.1788 6.64296 6.37903
upperneck 40.1656 2.68911 7.20009
head 17.9377 2.39248 2.53576
rclavicle -2.64384e-014 1.74931e-014
rhumerus 355.405 39.9677 -455.054
rradius 53.3227
rwrist -50.2544
rhand 13.3692 11.4138
rfingers 7.12502
rthumb 38.3144 -14.2992
lclavicle -2.64384e-014 1.74931e-014
lhumerus -12.5477 -41.402 85.6844
lradius 37.0035
lwrist 9.23329
lhand 29.0086 14.5971
lfingers 7.12502
lthumb 52.8135 34.2069
rfemur -59.2622 30.946 349.925
rtibia 41.0345
rfoot 162.801 145.843
rtoes 51.0498
lfemur -32.6389 -24.492 2.54495
ltibia 53.127
lfoot -204.866 -174.655
ltoes -47.2367
314
root 1.24748 15.9769 -15.084 -172.748 -49.9751 -165.231
lowerback -2.68369 5.92967 -1.33065
upperback -11.7621 7.16468 -0.952657
thorax -11.1054 3.2715 -0.728956
lowerneck -18.4715 5.47295 3.99666
upperneck 40.5488 1.25719 7.83099
head 18.4392 1.50494 3.01819
rclavicle -1.7175e-013 -1.74931e-014
rhumerus 355.605 36.9546 -453.154
rradius 50.7284
rwrist -49.6342
rhand 11.6387 10.7668
rfingers 7.12502
rthumb 36.6789 -15.38
lclavicle -1.7175e-013 -1.74931e-014
lhumerus -11.2007 -36.9207 83.7243
lradius 33.7813
lwrist 6.62411
lhand 28.3281 15.3749
lfingers 7.12502
lthumb 52.1977 35.3624
rfemur -63.5941 33.9197 344.195
rtibia 40.9158
rfoot 155.833 143.725
rtoes 50.3534
lfemur -33.5293 -21.5683 -0.561085
ltibia 54.3826
lfoot -205.658 -171.49
ltoes -46.1045
315
root 1.17149 15.9144 -14.812 -168.972 -47.3358 -168.607
lowerback -3.7633 5.35567 -2.36522
upperback -11.4271 6.34059 -0.999902
thorax -10.193 2.95841 -0.0359235
lowerneck -19.9183 4.08862 1.89297
upperneck 41.0205 -0.349779 7.9082
head 19.1504 0.5124 3.16394
rclavicle -4.95968e-014 6.04305e-014
rhumerus 356.031 34.9388 -450.708
rradius 48.356
rwrist -47.7439
rhand 7.03449 10.9172
rfingers 7.12502
rthumb 32.3085 -16.2264
lclavicle -4.95968e-014 6.04305e-014
lhumerus -10.0021 -33.093 81.8452
lradius 31.0869
lwrist 4.83501
lhand 27.3774 16.4748
lfingers 7.12502
lthumb 51.3344 36.9677
rfemur -63.2322 30.9109 343.812
rtibia 41.1426
rfoot 154.532 144.916
rtoes 48.9303
lfemur -34.6699 -20.5081 -4.49412
ltibia 55.5576
lfoot -206.843 -169.471
ltoes -40.8429
316
root 1.19625 15.8255 -14.6028 -168.59 -43.3634 -167.84
lowerback -3.78131 5.44788 -2.02314
upperback -11.5099 6.4696 -0.498195
thorax -10.3018 3.00004 0.301486
lowerneck -20.4288 2.56166 -0.0369934
upperneck 41.0163 -2.38911 8.47775
head 19.444 -0.570452 3.35563
rclavicle 1.18277e-014 6.36111e-015
rhumerus 356.075 31.1986 -448.74
rradius 46.1121
rwrist -45.7108
rhand 4.13739 10.0745
rfingers 7.12502
rthumb 29.5469 -17.5938
lclavicle 1.18277e-014 6.36111e-015
lhumerus -9.48717 -31.0041 79.5839
lradius 28.7355
lwrist 3.59474
lhand 26.1277 18.0543
lfingers 7.12502
lthumb 50.1945 39.1743
rfemur -68.5982 36.9963 337.31
rtibia 41.1734
rfoot 134.77 149.443
rtoes 54.0405
lfemur -35.4996 -17.2189 -5.17802
ltibia 56.9186
lfoot -208.594 -168.909
ltoes -36.1365
317
root 1.12411 15.7586 -14.3767 -166.77 -40.9378 -168.793
lowerback -4.5832 5.1658 -1.41414
upperback -11.6801 6.00332 -0.831757
thorax -9.89281 2.66622 -0.284986
lowerneck -20.1122 1.05782 -1.74914
upperneck 40.6818 -4.59483 9.31534
head 19.4188 -1.6706 3.56192
rclavicle -5.96851e-014 2.38542e-014
rhumerus 355.548 26.1994 -447.402
rradius 43.6605
rwrist -43.1368
rhand 1.07603 9.86709
rfingers 7.12502
rthumb 26.6206 -18.2815
lclavicle -5.96851e-014 2.38542e-014
lhumerus -9.11217 -28.0149 77.2635
lradius 25.747
lwrist 0.378225
lhand 25.2579 18.1299
lfingers 7.12502
lthumb 49.3979 39.6631
rfemur -68.5907 35.7459 337.009
rtibia 41.4394
rfoot 129.467 152.856
rtoes 54.8472
lfemur -36.8455 -15.9498 -7.2546
ltibia 58.0443
lfoot -209.94 -167.169
ltoes -34.4668
318
root 1.12967 15.6987 -14.2181 -166.32 -37.7373 -168.274
lowerback -4.99449 5.05061 -1.39048
upperback -11.6542 5.84052 -0.358675
thorax -9.67219 2.59227 0.247616
lowerneck -18.8946 -0.297029 -1.23254
upperneck 39.5421 -6.30103 8.03479
head 18.4542 -2.48761 2.39274
rclavicle 2.83268e-015 4.77083e-015
rhumerus 355.382 22.4915 -445.202
rradius 41.3759
rwrist -40.15
rhand -2.89019 10.2382
rfingers 7.12502
rthumb 22.8194 -18.432
lclavicle 2.83268e-015 4.77083e-015
lhumerus -9.06631 -25.0531 75.0635
lradius 23.535
lwrist -3.21012
lhand 23.947 18.4389
lfingers 7.12502
lthumb 48.1927 40.5613
rfemur -69.1701 36.0397 338
rtibia 41.5578
rfoot 124.695 152.503
rtoes 53.9961
lfemur -37.7776 -13.6356 -7.79261
ltibia 59.2042
lfoot -211.387 -166.879
ltoes -31.9575
319
root 1.05621 15.6336 -13.9654 -164.818 -35.1864 -169.21
lowerback -5.24463 4.71299 -0.852317
upperback -11.4261 5.37708 -0.343684
thorax -9.19631 2.31138 0.0199592
lowerneck -20.0779 -1.76116 -4.85111
upperneck 39.757 -8.15484 9.84175
head 19.4201 -3.56238 3.53039
rclavicle 4.90501e-014 1.35174e-014
rhumerus 355.794 19.7484 -442.409
rradius 39.2216
rwrist -37.9734
rhand -7.94786 11.884
rfingers 7.12502
rthumb 17.959 -17.3068
lclavicle 4.90501e-014 1.35174e-014
lhumerus -9.21256 -22.3313 72.6597
lradius 22.0432
lwrist -7.20834
lhand 22.6533 16.8478
lfingers 7.12502
lthumb 46.9984 39.5147
rfemur -68.8643 35.0763 337.979
rtibia 41.8062
rfoot 120.095 151.919
rtoes 52.8704
lfemur -39.177 -12.8621 -9.77692
ltibia 60.338
lfoot -212.422 -165.98
ltoes -29.9403
